<svg id="图层_1" data-name="图层 1" xmlns="http://www.w3.org/2000/svg" xmlns:xlink="http://www.w3.org/1999/xlink" viewBox="0 0 3831.01 1708.32"><defs><style>.cls-1,.cls-18,.cls-31{fill:none;}.cls-2{clip-path:url(#clip-path);}.cls-3{opacity:0.64;fill:url(#未命名的渐变_11);}.cls-4{fill:#c8daff;}.cls-20,.cls-5{fill:#e0e2f0;}.cls-6{fill:#e8f0fc;stroke:#0055ed;}.cls-18,.cls-21,.cls-31,.cls-6{stroke-miterlimit:10;}.cls-7{fill:#294ccb;}.cls-8,.cls-9{fill:#fff;}.cls-12,.cls-9{font-size:24.58px;}.cls-9{font-family:Futura-Bold, Futura;}.cls-32,.cls-9{font-weight:700;}.cls-10{fill:#b3d0f2;}.cls-11{fill:#9dc3ed;}.cls-12{fill:#0e72cc;font-family:FuturaBT-Medium, Futura Md BT;font-weight:500;}.cls-13{fill:#4e8dea;}.cls-14{fill:#c8dbfb;}.cls-15{fill:#9f8ff4;}.cls-16{fill:#0153c5;}.cls-17{fill:#279bfc;}.cls-18{stroke:#0e2336;stroke-width:4px;}.cls-19{fill:#565e63;}.cls-20{fill-opacity:0.51;}.cls-21{fill:#eef5ff;stroke:#0e72cc;}.cls-22{fill:#ffc6b0;}.cls-23{fill:#0e2336;}.cls-24{fill:#022341;}.cls-25{fill:#e8782d;}.cls-26{fill:#f78537;}.cls-27{fill:#4b91ff;}.cls-28{fill:#1d1d1b;}.cls-29{fill:#007e80;}.cls-30{fill:#009b89;}.cls-31{stroke:#c6dcf9;stroke-width:2px;stroke-dasharray:6;}.cls-32{font-size:36px;fill:#c6dcf9;font-family:Arial-BoldMT, Arial;}.cls-33{opacity:0.54;fill:url(#未命名的渐变_11-2);}</style><clipPath id="clip-path"><rect class="cls-1" x="-0.34" y="0.43" width="3831" height="1708"/></clipPath><linearGradient id="未命名的渐变_11" x1="2915.15" y1="1689.51" x2="2915.15" y2="613.89" gradientUnits="userSpaceOnUse"><stop offset="0.34" stop-color="#e4e4ff" stop-opacity="0.8"/><stop offset="1" stop-color="#e4e4ff" stop-opacity="0.2"/></linearGradient><linearGradient id="未命名的渐变_11-2" x1="1110.2" y1="749.43" x2="1110.2" y2="-208.57" xlink:href="#未命名的渐变_11"/></defs><title>banner</title><g class="cls-2"><path class="cls-3" d="M3620.66,1459.43c-56.79,46.89-72.62,34.08-191,107-84.85,52.28-85.86,64.49-135.72,86.1-24.71,10.71-103.25,45.18-193.52,35.19-130.61-14.47-243.23-115.4-299.08-217-52.87-96.16-35.71-158-99.69-199.39-38.55-24.91-69.41-18.37-164.2-17.59-185.88,1.53-286.7,2.36-369.45-52.78-51.05-34-116-103.2-105.55-175.92,7.81-54.26,54.38-88.09,70.37-99.7,88.07-64,208.84-45.43,275.62-35.18,112.1,17.2,154.44,52.82,205.25,23.46,27.38-15.83,31.62-35.75,64.5-88,0,0,44.69-71.3,129-158.33,146.35-151.06,870.6,31.25,951.45,381.09,28.86,124.88-12,236-12,236C3709.94,1384.3,3640.35,1443.18,3620.66,1459.43Z"/><ellipse class="cls-4" cx="2324.66" cy="1482.43" rx="87" ry="9"/><rect class="cls-5" x="2241.99" y="647.1" width="1147.67" height="773.67" rx="9.87"/><rect class="cls-6" x="2223.66" y="632.43" width="1148" height="773.67" rx="9.87"/><path class="cls-7" d="M3371.66,688.43V642.3a9.87,9.87,0,0,0-9.87-9.87H2233.53a9.87,9.87,0,0,0-9.87,9.87v46.13Z"/><circle class="cls-8" cx="2252.66" cy="660.43" r="17"/><circle class="cls-8" cx="2394.66" cy="660.43" r="11"/><circle class="cls-8" cx="2446.26" cy="660.43" r="11"/><circle class="cls-8" cx="2497.86" cy="660.43" r="11"/><circle class="cls-8" cx="2549.46" cy="660.43" r="11"/><circle class="cls-8" cx="2652.66" cy="660.43" r="11"/><circle class="cls-8" cx="2601.06" cy="660.43" r="11"/><text class="cls-9" transform="translate(2280.6 669.06)">CAST</text><rect class="cls-10" x="2223.66" y="688.43" width="197" height="48"/><rect class="cls-10" x="2423.66" y="688.43" width="472" height="48"/><rect class="cls-10" x="2900.66" y="688.43" width="470" height="48"/><rect class="cls-11" x="2420.66" y="688.43" width="3" height="718"/><rect class="cls-11" x="2896.91" y="688.43" width="2.5" height="389"/><rect class="cls-11" x="2895.79" y="602.56" width="2.75" height="949" transform="translate(1820.1 3974.22) rotate(-90)"/><text class="cls-12" transform="translate(2236.6 722.06)">Data</text><text class="cls-12" transform="translate(2441.6 722.06)">Chart</text><text class="cls-12" transform="translate(2913.6 722.06)">Animation</text><rect class="cls-10" x="2423.66" y="1078.43" width="947" height="48"/><text class="cls-12" transform="translate(2440.6 1112.06)">Storyboard</text><rect class="cls-8" x="2228.66" y="749.43" width="187" height="20.68" rx="10.34"/><rect class="cls-8" x="2228.66" y="777.43" width="187" height="20.68" rx="10.34"/><rect class="cls-8" x="2228.66" y="805.43" width="187" height="20.68" rx="10.34"/><rect class="cls-8" x="2228.66" y="833.43" width="187" height="20.68" rx="10.34"/><rect class="cls-8" x="2228.66" y="861.43" width="187" height="20.68" rx="10.34"/><rect class="cls-8" x="2228.66" y="889.43" width="187" height="20.68" rx="10.34"/><rect class="cls-8" x="2228.66" y="917.43" width="187" height="20.68" rx="10.34"/><rect class="cls-8" x="2228.66" y="945.43" width="187" height="20.68" rx="10.34"/><rect class="cls-8" x="2228.66" y="973.43" width="187" height="20.68" rx="10.34"/><rect class="cls-8" x="2228.66" y="1001.43" width="187" height="20.68" rx="10.34"/><rect class="cls-8" x="2228.66" y="1029.43" width="187" height="20.68" rx="10.34"/><rect class="cls-8" x="2228.66" y="1057.43" width="187" height="20.68" rx="10.34"/><rect class="cls-8" x="2228.66" y="1089.43" width="187" height="20.68" rx="10.34" transform="translate(-145.51 383.87) rotate(-9.16)"/><rect class="cls-8" x="2917.66" y="755.43" width="437" height="305" rx="10.91"/><circle class="cls-13" cx="2536.66" cy="713.43" r="9"/><circle class="cls-13" cx="2570.16" cy="713.43" r="9"/><circle class="cls-13" cx="2603.66" cy="713.43" r="9"/><circle class="cls-14" cx="3136.41" cy="907.93" r="50"/><polygon class="cls-8" points="3167.66 907.93 3118.91 879.79 3118.91 936.08 3167.66 907.93"/><rect class="cls-8" x="2440.66" y="755.43" width="437" height="305" rx="10.91"/><rect class="cls-15" x="2518.2" y="927.43" width="30.14" height="84"/><rect class="cls-16" x="2555.64" y="889.43" width="30.14" height="122"/><rect class="cls-17" x="2481.66" y="861.43" width="30.14" height="150"/><rect class="cls-15" x="2638.76" y="843.43" width="30.14" height="168"/><rect class="cls-16" x="2676.21" y="871.43" width="30.14" height="140"/><rect class="cls-17" x="2602.23" y="811.43" width="30.14" height="200"/><rect class="cls-15" x="2762.07" y="798.43" width="30.14" height="213"/><rect class="cls-16" x="2799.52" y="818.43" width="30.14" height="193"/><rect class="cls-17" x="2725.53" y="945.43" width="30.14" height="66"/><line class="cls-18" x1="2866.66" y1="692.43" x2="2866.66" y2="895.43"/><line class="cls-18" x1="2866.66" y1="895.43" x2="2830.66" y2="931.43"/><line class="cls-18" x1="2866.66" y1="895.43" x2="2902.66" y2="931.43"/><circle class="cls-19" cx="2867.16" cy="895.93" r="9"/><rect class="cls-20" x="2754.49" y="936.43" width="252.17" height="176" rx="10.91"/><rect class="cls-21" x="2747.49" y="929.43" width="252.17" height="176" rx="10.91"/><rect class="cls-15" x="2792.23" y="1028.69" width="17.39" height="48.47"/><rect class="cls-16" x="2813.84" y="1006.76" width="17.39" height="70.4"/><rect class="cls-17" x="2771.15" y="990.6" width="17.39" height="86.56"/><path class="cls-22" d="M2930.66,1459.43l6,11,15-1-8-13Z"/><path class="cls-22" d="M2995.66,1447.43l-1,1,12,11,11-6-10-14Z"/><ellipse class="cls-4" cx="2975.16" cy="1482.43" rx="101.5" ry="9"/><path class="cls-22" d="M2956.66,1133.43a34.58,34.58,0,0,0-9,4c-3.27,2.07-10.92,6.91-13,16-.35,1.55-2.3,10,3,16a14.68,14.68,0,0,0,6,4v10l10,6q.49-8.49,1-17a19.06,19.06,0,0,0,8-7C2967.89,1157,2965.59,1144.14,2956.66,1133.43Z"/><path class="cls-23" d="M2949.66,1154.43a8,8,0,0,1,5,1c.89.54,1.81,1.1,2,2,.38,1.82-2.6,3.06-5,6s-4.5,7.88-3,11,5.89,3.56,10,4c6.11.67,19.21,2.09,27-7,1.28-1.48,6.05-7,5-13-.46-2.64-1.86-4.11-2-8-.12-3.37.88-3.8,1-7,.14-3.61-.88-9.94-5-12-3.14-1.56-7.24-.24-8,0-2.72.88-3.7,2.25-6,2a7.22,7.22,0,0,1-4-2c-1.72-1.54-2-3-3-5-.81-1.57-3.44-6.72-7-7-3-.23-5.95,3.14-7,6-1.49,4.08.48,8,1,9,.78,1.54,1.06,1.32,2,3a14.09,14.09,0,0,1,2,9A12.85,12.85,0,0,1,2949.66,1154.43Z"/><path class="cls-22" d="M2901.66,1105.43a10.58,10.58,0,0,0,4,5c4.12,2.66,9.59,1.67,13-1,3.77-2.94,5.77-8.67,4-11a2.32,2.32,0,0,0-2-1c-1.61.26-2.74,3.38-3,8Z"/><path class="cls-7" d="M2905.66,1110.43h16a83.11,83.11,0,0,0-4,39c1,7.12,2.31,14,7,21,7.62,11.44,19.3,15.62,24,17l-37-7a61.52,61.52,0,0,1-8-17c-2.71-9.27-2.42-16.76-2-26A136.33,136.33,0,0,1,2905.66,1110.43Z"/><path class="cls-24" d="M2934.66,1468.43l-17,8c-1,.26-2,.61-2,1,0,1.21,10.23,1.79,14,2a239,239,0,0,0,27,0,10.66,10.66,0,0,0,0-4c-.94-4.88-5.09-7.46-6-8Z"/><path class="cls-24" d="M3003.66,1458.43a75.61,75.61,0,0,0-15,12c-1.76,1.84-2.22,2.53-2,3,.62,1.34,6.23.14,28-6,5.78-1.63,10.6-3,14-4a34.3,34.3,0,0,0-12-12Z"/><path class="cls-25" d="M2952.66,1323.43a152.17,152.17,0,0,0,12,89,127.39,127.39,0,0,0,32,40l16-10a184.59,184.59,0,0,1-17-28c-3.95-8-8.76-18-12-32-3.14-13.5-5.67-24.43-2-37,3-10.22,6.41-9,11-23,5-15.35,3.57-24.92,3-28a46.44,46.44,0,0,0-4-12l-31,2Q2956.66,1303.93,2952.66,1323.43Z"/><path class="cls-26" d="M2923.66,1297.43a154.15,154.15,0,0,0-10,21c-5.7,14.78-19,56-4,103a147.67,147.67,0,0,0,20,40l17-3a124.7,124.7,0,0,1-7-18c-6.15-20.35-5.47-37-5-47,.92-19.31,1.91-40.29,14-58a151.74,151.74,0,0,0,15-25,139.62,139.62,0,0,0,6-15Z"/><path class="cls-22" d="M2829.66,1099.43c-.59,1.54,3.3,4.34,7,7,4.65,3.35,8.75,5,16,8a15.77,15.77,0,0,0,3,1c1.48.33,7.19,1.56,11-2,3.05-2.85,3-7,3-8h-10a63.27,63.27,0,0,0-13-5C2840.77,1098.9,2830.53,1097.15,2829.66,1099.43Z"/><path class="cls-27" d="M2851.66,1113.43h15a61.19,61.19,0,0,0,5,27c9,20.53,27.06,29.54,32,32,10.05,5,20.41,7.09,30,9,12.22,2.44,12.61,1.1,18,3,14.46,5.12,22,18.47,29,31,9.72,17.32,12.48,32.92,14,42a148.88,148.88,0,0,1,2,28,120.36,120.36,0,0,1-26,11c-12.4,3.61-22.29,4.31-32,5a210.65,210.65,0,0,1-30,0q.49-44.49,1-89a8.86,8.86,0,0,0-1-4c-1.92-3.55-6.11-4.72-7-5-8.19-2.56-30.62-22.28-40-36C2857.64,1161.56,2847.55,1144.39,2851.66,1113.43Z"/><path class="cls-22" d="M2835.05,692.18a60.19,60.19,0,0,0,14,5.54c4.8,1.23,10.83,3.1,15.32-.13a9.82,9.82,0,0,0,3.86-10.37c-2.14-7.62-11.57-10.86-18.17-8.32-3.36,1.3-3,4.13-6.3,4.84-2.77.6-5.24-.53-7.72-1.71C2835.75,685.41,2835.53,688.81,2835.05,692.18Z"/><path class="cls-22" d="M2900.26,696.26a51.36,51.36,0,0,1-15.78,4.49c-5.22.57-11.3,1.83-15.38-2.17a10.38,10.38,0,0,1-2.32-11.19c3.1-7.52,12.76-9.14,18.94-5.45,3.15,1.88,2.07,4.68,5.29,5.82,2.75,1,5.18-.22,7.78-1.11C2899.24,689.85,2899.69,693.05,2900.26,696.26Z"/><path class="cls-26" d="M2828.66,632h84a44.21,44.21,0,0,1,12,7c4.2,3.45,7,5.69,8,9,3.07,9.65-10.22,21.92-17.37,27a53.42,53.42,0,0,1-21.21,8.86c2.63,5.45,5,10.8,7.7,16.5a96.92,96.92,0,0,0,28.43-13.66A82.56,82.56,0,0,0,2944.66,674c5.34-6.1,11.89-13.57,13.3-24.47a36.73,36.73,0,0,0-2.3-17.53c-7.74-21.57-30.48-31.34-39-35-17.88-7.68-33.55-7.71-44-7.63-8.8.07-24,.33-41.68,7.34-9.54,3.78-36.7,14.54-46.81,40.31-2,5.16-7.1,18.11-1.46,30,3.12,6.55,8.61,10.9,12,13.55,6.17,4.89,11.81,7.08,18,9.45a105.12,105.12,0,0,0,24,6,50.91,50.91,0,0,1,0-7,49.82,49.82,0,0,1,1-7c-5.57-.88-16-3.45-24-12-2.95-3.13-7.39-7.86-7-14,.28-4.4,2.91-7.42,7-12A58.89,58.89,0,0,1,2828.66,632Z"/><path class="cls-22" d="M2863.66,593.43a27.51,27.51,0,0,1-9-19c.36-2.28,2.06-11.26,10-17,9.53-6.88,23.49-5.78,32,2,6.78,6.2,7.79,14.54,8,17-.41,1.85-2.94,12.53-13,18a25.16,25.16,0,0,1-12,3c.33,3.67.67,7.34,1,11a16,16,0,0,1-8,7c-3.57,1.36-10.38,2.33-14-2-2.45-2.92-2.15-6.74-2-8Z"/><path class="cls-28" d="M2855.66,579.43a38.28,38.28,0,0,1-4-13c-.57-4.79-1.45-12.24,3-19,4.65-7,12.29-9,16-10,3.55-.92,12.18-3.16,19,1,2.62,1.6,3.73,3.38,7,4,3.71.71,5.23-1,9-1,6,0,10.49,4.48,11,5,4.94,5.06,6,13.38,3,20-2.87,6.37-9.61,11.51-16,11-8.81-.69-11.23-11.63-20-12-4.75-.19-8.69,2.83-11,5,.48-3.86-1.37-7.16-4-8a5.33,5.33,0,0,0-5,1c-2.27,2.13-.45,5.46-3,8-1.14,1.15-1.81.78-3,2A8.49,8.49,0,0,0,2855.66,579.43Z"/><path class="cls-22" d="M2292.59,1444.83h0q-.77,7.59-1.52,15.17l10.62,1.51q.75-8.34,1.51-16.68Z"/><path class="cls-22" d="M2330.5,1446.35,2329,1460h0l11.34,1.41.79.1q.77-8.34,1.52-16.68Z"/><path class="cls-22" d="M2303.2,1155.13a4.94,4.94,0,0,0-3,1.52c-.76.9-.94,2,0,9.1.47,3.52.7,4.67,1.52,6.07a6.21,6.21,0,0,0,3,3c2.89,1.09,5.83-1.32,6.07-1.52l31.85-6.06c.35.15,2.83,1.22,4.55,0,.49-.36,1-1,1.51-3a14.92,14.92,0,0,0,0-7.58c-.41-1.57-1.55-5.88-4.55-7.58-4.15-2.37-7.24,2.94-16.68,4.55C2320.32,1154.83,2311.48,1153.59,2303.2,1155.13Z"/><path class="cls-22" d="M2321.4,1182.43a26.3,26.3,0,0,1-3,13.65,25.33,25.33,0,0,1-4.55,6.07h25.78a22.63,22.63,0,0,1-4.55-19.72Z"/><path class="cls-28" d="M2344.15,1144.51a109,109,0,0,1,1.52,24.27c-.36,7-1.21,9.78-3,12.14-5,6.42-14.33,6.1-15.17,6.06-11.34-.55-18.44-11.07-21.23-15.16-5.44-8-6.34-15.44-7.59-25.79-1.5-12.48.77-16.87,1.52-18.2a22.22,22.22,0,0,1,10.62-9.1c1.36-.58,7.93-3.4,15.16-1.52,3.32.87,4.9,2.23,7.59,1.52s3.08-2.72,6.06-4.55,7.32-2.84,10.62-1.52c5.67,2.27,7.66,11.5,6.07,18.2C2354.11,1140.06,2345.36,1144,2344.15,1144.51Z"/><path class="cls-29" d="M2326,1329.56q1.83,16.93,3,34.88c2,29.48,2.3,57.37,1.51,83.42h13.65c2.65-50.24,5.39-75.62,7.59-89.48a259.13,259.13,0,0,0,3-28.82c.54-10.87.3-19.83,0-25.79-6.68-6.26-16-8-22.75-4.55C2322.85,1303.91,2318.69,1318,2326,1329.56Z"/><path class="cls-30" d="M2303.2,1311.36q-2.94,25.68-6.06,51.57-5.16,42.78-10.62,84.93h16.68c.74-4.39,6.69-39.77,13.65-68.25,1.8-7.37,5.7-23.31,9.1-33.37.34-1,1.56-4.57,3-9.47,1.75-6,2.8-10.52,3.08-11.76,1-4.45,2.13-10.08,3-16.69Z"/><path class="cls-24" d="M2289.55,1455.45l15.17,3a86,86,0,0,1,1.52,12.13,88.94,88.94,0,0,1,0,9.1h-41c-.68-.32-1.43-.82-1.51-1.51-.17-1.36,2.27-2.82,6.06-4.55,9.28-4.24,12.11-3.48,15.17-6.07C2287.06,1465.84,2289.32,1462.51,2289.55,1455.45Z"/><path class="cls-24" d="M2343.22,1456.4l-15.46.59a86.39,86.39,0,0,0-4.87,20.73,108.77,108.77,0,0,0,41,3.51,7.68,7.68,0,0,0-1.51-3c-1.77-2.12-4.23-2.53-6.07-3a23.58,23.58,0,0,1-10.51-6.05C2344.58,1467.74,2342.13,1464.21,2343.22,1456.4Z"/><path class="cls-22" d="M2294.1,1186.55A63.7,63.7,0,0,1,2282,1160.3a82.12,82.12,0,0,1-1.52-29,24.67,24.67,0,0,1,4.55-11,35.75,35.75,0,0,1,3.66-4.8l-4,1c.2-.88.46-2,.8-3.34.46-1.8.79-2.47,1.06-3.86.4-2.09.6-3.13.14-3.73-1.2-1.58-6.1-1.35-9,.91-1.74,1.35-2.38,3.15-3.28,8.34-1,5.9-1.31,10.41-1.51,12.44-2.66,26.13-3.3,25.77-3,31.78a91.06,91.06,0,0,0,3,19.34,94.07,94.07,0,0,0,7.58,19.34Z"/><path class="cls-22" d="M2356.23,1184.91a77.7,77.7,0,0,0,7.59-14.29,84.91,84.91,0,0,0,4.55-15.86,108.07,108.07,0,0,0,1.51-33.33c-.56-4.75-1.34-9-4.55-12.69a17.89,17.89,0,0,0-5.67-4.31l5-1a7.07,7.07,0,0,0,.17-2.82,10.46,10.46,0,0,0-.36-1.49c-.36-1.33-.68-2.3-.81-2.69-.79-2.41-1.18-3.62-1-4,.69-1.43,4.94-1.76,8,0,1.28.74,3.26,2.54,5.29,10,1.27,4.66.88,7.14,1.52,14.28,2.66,30,3.3,29.6,3,36.5a118.74,118.74,0,0,1-10.62,44.43Z"/><path class="cls-27" d="M2291.07,1180.92l-13.65,13.65a288.24,288.24,0,0,0,13.65,30.33c2.49,4.79,5,9.34,7.58,13.65a10.2,10.2,0,0,1,1.52,3,10.62,10.62,0,0,1,0,6.06q-3.8,37.92-7.58,75.84a171,171,0,0,0,71.28,1.52l-4.55-72.81a22,22,0,0,1,1.52-10.61q7.57-25,15.17-50.06l-16.69-13.65-12.13,18.2a19.8,19.8,0,0,1-1.52,1.52,19.57,19.57,0,0,1-4.55,3h-25.78a29.43,29.43,0,0,1-3-1.51,48.82,48.82,0,0,1-4.55-3h0Z"/><rect class="cls-31" x="2440.66" y="1143.68" width="312" height="217.76" rx="10.91"/><text class="cls-32" transform="translate(2585.66 1264.56)">+</text><path class="cls-33" d="M2107.37-71.13c38.12,61.15,33.4,147.85,33,154.6-.7,10.87-13.86,169.57-164.87,261.63-122.14,74.45-261.23,60.66-353.28,51.53-267.86-26.57-508.77-172.92-570-210.1C958,129.28,903.47,82.75,816.7,87.43c-114.78,6.19-192.55,96.95-207.26,115C548,277.65,547.22,358,548.21,515.55a1582,1582,0,0,0,18.84,233.88c-2.42-196.25-70.63-274.18-131.89-309.2-124-70.85-294.47-8.88-343.87-79.28C56,310.67,110.52,232.74,129,206.35c127.74-182.62,405.23-264,673.59-317.12C959.34-141.79,1942.13-336.22,2107.37-71.13Z"/></g></svg>